<?xml version="1.0" encoding="utf-8"?>
<!-- Generator: Adobe Illustrator 16.0.3, SVG Export Plug-In . SVG Version: 6.00 Build 0)  -->
<!DOCTYPE svg PUBLIC "-//W3C//DTD SVG 1.1//EN" "http://www.w3.org/Graphics/SVG/1.1/DTD/svg11.dtd">
<svg version="1.1" id="Logo" xmlns="http://www.w3.org/2000/svg" xmlns:xlink="http://www.w3.org/1999/xlink" x="0px" y="0px"
	 width="2792px" height="736px" viewBox="0 0 2792 736" enable-background="new 0 0 2792 736" xml:space="preserve">
<g>
	<path fill="#0753EB" d="M681.969,236.496c29.574,0,57.374,7.396,83.401,22.183c26.021,14.792,46.332,34.858,60.93,60.21
		c14.594,25.352,21.895,52.72,21.895,82.104c0,29.578-7.346,57.234-22.039,82.969c-14.691,25.738-34.714,45.855-60.065,60.354
		c-25.352,14.498-53.296,21.75-83.833,21.75c-44.941,0-83.307-15.988-115.09-47.967c-31.789-31.977-47.679-70.819-47.679-116.53
		c0-48.975,17.956-89.784,53.872-122.437C604.856,250.711,641.061,236.496,681.969,236.496z M683.265,310.534
		c-24.433,0-44.779,8.499-61.033,25.495c-16.259,16.998-24.384,38.748-24.384,65.252c0,27.273,8.03,49.361,24.096,66.26
		c16.061,16.902,36.407,25.352,61.034,25.352c24.622,0,45.112-8.544,61.466-25.64c16.349-17.092,24.527-39.081,24.527-65.972
		c0-26.887-8.035-48.731-24.096-65.539C728.81,318.938,708.274,310.534,683.265,310.534z"/>
	<path fill="#0753EB" d="M1132.554,244.563h78.359v268.496c0,53.008-10.659,91.994-31.978,116.963
		c-28.619,33.801-71.733,50.703-129.351,50.703c-30.73,0-56.563-3.844-77.495-11.523c-20.936-7.684-38.604-18.969-53.008-33.85
		c-14.404-14.887-25.063-32.986-31.978-54.305h86.714c7.68,8.832,17.573,15.507,29.673,20.021c12.1,4.511,26.405,6.771,42.925,6.771
		c21.125,0,38.122-3.268,50.991-9.795c12.865-6.531,21.939-14.98,27.225-25.352c5.279-10.371,7.922-28.232,7.922-53.584
		c-13.828,13.828-28.331,23.767-43.501,29.817c-15.174,6.049-32.364,9.074-51.567,9.074c-42.061,0-77.594-15.17-106.592-45.518
		c-29.002-30.344-43.501-68.754-43.501-115.234c0-49.74,15.363-89.689,46.094-119.844c27.846-27.269,61.074-40.908,99.678-40.908
		c18.051,0,35.097,3.313,51.136,9.939c16.033,6.626,32.121,17.528,48.254,32.698V244.563z M1051.025,309.958
		c-24.775,0-45.229,8.31-61.362,24.919c-16.133,16.615-24.199,37.501-24.199,62.659c0,26.121,8.256,47.534,24.775,64.243
		c16.516,16.709,37.258,25.063,62.227,25.063c24.389,0,44.51-8.161,60.354-24.487c15.846-16.322,23.768-37.739,23.768-64.243
		c0-26.117-7.972-47.341-23.911-63.667C1096.732,318.124,1076.184,309.958,1051.025,309.958z"/>
	<path fill="#0753EB" d="M1274.583,244.563h67.412v39.468c7.297-15.557,16.997-27.368,29.097-35.435s25.352-12.1,39.756-12.1
		c10.178,0,20.837,2.692,31.978,8.066l-24.487,67.7c-9.219-4.609-16.808-6.914-22.759-6.914c-12.1,0-22.326,7.49-30.682,22.471
		c-8.354,14.98-12.531,44.365-12.531,88.154l0.288,15.269V558h-78.071V244.563z"/>
	<path fill="#0753EB" d="M1693.875,244.563h78.647V558h-78.647v-33.13c-15.35,14.598-30.744,25.113-46.184,31.546
		c-15.444,6.432-32.181,9.65-50.213,9.65c-40.476,0-75.487-15.701-105.029-47.102c-29.543-31.402-44.312-70.438-44.312-117.107
		c0-48.398,14.292-88.055,42.875-118.979c28.584-30.92,63.303-46.382,104.166-46.382c18.798,0,36.442,3.556,52.94,10.659
		c16.497,7.107,31.748,17.767,45.756,31.978V244.563z M1611.199,309.094c-24.313,0-44.505,8.598-60.584,25.783
		c-16.079,17.191-24.118,39.229-24.118,66.116c0,27.08,8.179,49.361,24.546,66.836c16.367,17.479,36.511,26.216,60.439,26.216
		c24.694,0,45.176-8.593,61.443-25.783c16.268-17.187,24.406-39.707,24.406-67.557c0-27.27-8.139-49.357-24.406-66.26
		C1656.658,317.547,1636.082,309.094,1611.199,309.094z"/>
	<path fill="#FF5300" d="M2037.114,288.352l-48.687,48.687c-19.783-19.59-37.739-29.385-53.872-29.385
		c-8.836,0-15.75,1.873-20.742,5.618c-4.996,3.745-7.49,8.404-7.49,13.972c0,4.227,1.584,8.116,4.754,11.667
		c3.168,3.557,10.992,8.404,23.479,14.549l28.809,14.404c30.344,14.98,51.181,30.249,62.515,45.806
		c11.33,15.557,16.997,33.805,16.997,54.736c0,27.85-10.227,51.09-30.682,69.717c-20.453,18.631-47.871,27.944-82.248,27.944
		c-45.711,0-82.203-17.861-109.473-53.584l48.398-52.72c9.219,10.758,20.021,19.446,32.41,26.071
		c12.387,6.627,23.38,9.939,32.985,9.939c10.371,0,18.726-2.494,25.063-7.49c6.338-4.992,9.507-10.754,9.507-17.285
		c0-12.1-11.429-23.911-34.282-35.435l-26.504-13.252c-50.703-25.541-76.055-57.519-76.055-95.933
		c0-24.775,9.552-45.95,28.664-63.523c19.108-17.573,43.547-26.36,73.318-26.36c20.355,0,39.513,4.465,57.473,13.396
		C2009.408,258.823,2024.628,271.643,2037.114,288.352z"/>
	<path fill="#FF5300" d="M2131.425,115.5c13.787,0,25.612,4.997,35.475,14.98c9.862,9.988,14.796,22.088,14.796,36.299
		c0,14.021-4.884,25.977-14.652,35.867c-9.768,9.894-21.448,14.836-35.042,14.836c-13.981,0-25.905-5.042-35.769-15.125
		c-9.862-10.083-14.791-22.327-14.791-36.731c0-13.828,4.88-25.64,14.647-35.435S2117.632,115.5,2131.425,115.5z M2092.101,244.563
		h78.647V558h-78.647V244.563z"/>
	<path fill="#FF5300" d="M2239.553,244.563h78.647v36.011c13.45-14.787,28.395-25.829,44.829-33.13
		c16.43-7.297,34.354-10.947,53.769-10.947c19.599,0,37.28,4.803,53.044,14.404c15.759,9.606,28.443,23.623,38.054,42.061
		c12.491-18.438,27.818-32.455,45.981-42.061c18.163-9.602,38.01-14.404,59.535-14.404c22.29,0,41.894,5.186,58.81,15.557
		c16.912,10.371,29.069,23.911,36.47,40.62s11.101,43.888,11.101,81.528V558h-79.224V398.977c0-35.529-4.42-59.584-13.252-72.166
		c-8.836-12.577-22.088-18.87-39.756-18.87c-13.445,0-25.496,3.844-36.154,11.523c-10.66,7.684-18.582,18.293-23.768,31.834
		c-5.186,13.539-7.778,35.29-7.778,65.251V558h-79.224V406.179c0-28.039-2.07-48.349-6.207-60.931
		c-4.142-12.576-10.349-21.939-18.627-28.088c-8.278-6.145-18.289-9.219-30.033-9.219c-13.09,0-24.978,3.889-35.664,11.667
		c-10.686,7.778-18.671,18.68-23.965,32.698c-5.294,14.021-7.94,36.109-7.94,66.26V558h-78.647V244.563z"/>
</g>
<polygon id="Big_right_column" fill="#0753EB" points="380,558 479,558 479,95.871 380,209.611 "/>
<polygon id="Small_right_column" fill="#FF5300" points="360,232.588 299,302.671 299,558 360,558 "/>
<polygon id="Left_Path" fill="#0753EB" points="156,558 79,558 79,95.859 279,325.536 279,441.665 156,300.25 "/>
<g>
</g>
<g>
</g>
<g>
</g>
<g>
</g>
<g>
</g>
<g>
</g>
<g>
</g>
<g>
</g>
<g>
</g>
<g>
</g>
<g>
</g>
<g>
</g>
<g>
</g>
<g>
</g>
<g>
</g>
</svg>
